<svg xmlns="http://www.w3.org/2000/svg" viewBox="0 0 300 300">
  <circle cx="150" cy="150" r="140" fill="#a6e1fa" stroke="#0078d4" stroke-width="5"/>
  <path d="M50,80 Q100,50 150,80 T250,80" fill="none" stroke="#fff" stroke-width="3" opacity="0.5"/>
  <path d="M50,120 Q100,90 150,120 T250,120" fill="none" stroke="#fff" stroke-width="3" opacity="0.5"/>
  <path d="M50,160 Q100,130 150,160 T250,160" fill="none" stroke="#fff" stroke-width="3" opacity="0.5"/>
  <path d="M70,60 Q120,30 170,60 T270,60" fill="none" stroke="#fff" stroke-width="2" opacity="0.3"/>
  <path d="M30,100 Q80,70 130,100 T230,100" fill="none" stroke="#fff" stroke-width="2" opacity="0.3"/>
  <path d="M40,140 Q90,110 140,140 T240,140" fill="none" stroke="#fff" stroke-width="2" opacity="0.3"/>
  <path d="M60,180 Q110,150 160,180 T260,180" fill="none" stroke="#fff" stroke-width="2" opacity="0.3"/>
  <path d="M80,200 Q130,170 180,200 T280,200" fill="none" stroke="#fff" stroke-width="2" opacity="0.3"/>
  <path d="M90,220 Q140,190 190,220 T290,220" fill="none" stroke="#fff" stroke-width="2" opacity="0.3"/>
  <path d="M70,240 Q120,210 170,240 T270,240" fill="none" stroke="#fff" stroke-width="2" opacity="0.3"/>
  <path d="M50,260 Q100,230 150,260 T250,260" fill="none" stroke="#fff" stroke-width="2" opacity="0.3"/>
  <path d="M30,280 Q80,250 130,280 T230,280" fill="none" stroke="#fff" stroke-width="2" opacity="0.3"/>
  <path d="M80,50 C120,80 180,80 220,50" fill="none" stroke="#8fd14f" stroke-width="8"/>
  <path d="M60,100 C100,130 200,130 240,100" fill="none" stroke="#ffda8a" stroke-width="8"/>
  <path d="M70,150 C110,180 190,180 230,150" fill="none" stroke="#ff9e7d" stroke-width="8"/>
  <path d="M90,200 C130,230 170,230 210,200" fill="none" stroke="#d0bbff" stroke-width="8"/>
</svg>
